<svg xmlns="http://www.w3.org/2000/svg" width="220" height="220" viewBox="0 0 220 220">
  <rect width="220" height="220" fill="#ffffff" />
  <rect x="16" y="16" width="60" height="60" fill="#0f172a" />
  <rect x="24" y="24" width="44" height="44" fill="#ffffff" />
  <rect x="32" y="32" width="28" height="28" fill="#0f172a" />
  <rect x="144" y="16" width="60" height="60" fill="#0f172a" />
  <rect x="152" y="24" width="44" height="44" fill="#ffffff" />
  <rect x="160" y="32" width="28" height="28" fill="#0f172a" />
  <rect x="16" y="144" width="60" height="60" fill="#0f172a" />
  <rect x="24" y="152" width="44" height="44" fill="#ffffff" />
  <rect x="32" y="160" width="28" height="28" fill="#0f172a" />
  <rect x="96" y="96" width="12" height="12" fill="#0f172a" />
  <rect x="116" y="96" width="12" height="12" fill="#0f172a" />
  <rect x="136" y="96" width="12" height="12" fill="#0f172a" />
  <rect x="96" y="116" width="12" height="12" fill="#0f172a" />
  <rect x="116" y="116" width="12" height="12" fill="#0f172a" />
  <rect x="136" y="116" width="12" height="12" fill="#0f172a" />
  <rect x="96" y="136" width="12" height="12" fill="#0f172a" />
  <rect x="116" y="136" width="12" height="12" fill="#0f172a" />
  <rect x="136" y="136" width="12" height="12" fill="#0f172a" />
  <text x="110" y="210" text-anchor="middle" font-family="Arial, sans-serif" font-size="12" fill="#0f172a">
    QR descarga
  </text>
</svg>
